<svg id="Layer_1" data-name="Layer 1" xmlns="http://www.w3.org/2000/svg" viewBox="0 0 1000 1000"><defs><style>.cls-1{fill:#020202;}</style></defs><path class="cls-1" d="M612.49,300H755.78v-10.1a717.15,717.15,0,0,1-122.46-37.12,61.57,61.57,0,0,0-51.76,4.55,120.33,120.33,0,0,1-87.49,13.25v11.24a131.14,131.14,0,0,0,65.52-3,59.43,59.43,0,0,0-8.71,31.56c0,18.69,6.82,28.28,19.57,50.38L611,431.46a25.85,25.85,0,0,1-9.59,35.47,24.64,24.64,0,0,1-13,3.41c-26.26,0-43.18-49.36-104.67-49.36a101.39,101.39,0,0,0-74,32.44L244.22,618.69c10.6,1.89,57.94,8.08,81,9.34l-31.19,66.28A735.46,735.46,0,0,0,494.19,628V814.5h11V622.22c9.34-4.92,18.43-9.85,27.52-15a99.54,99.54,0,0,0,51-85.47,73.31,73.31,0,0,0,10.48,0,76.88,76.88,0,0,0,71.08-82.19,77.79,77.79,0,0,0-10.1-33l-52.14-90a10.38,10.38,0,0,1-1.51-5.43,10.52,10.52,0,0,1,10-11h0l1-.13ZM560.35,475.52a89.38,89.38,0,0,1,12.12,33.2c-19.32-5.43-28.79-18.05-40.53-26.89a51.25,51.25,0,0,1,24.37-6.56Zm-75.88-42.8a88.44,88.44,0,0,1,67.8,31.69,60.85,60.85,0,0,0-30,10A103.21,103.21,0,0,0,425,456a88.33,88.33,0,0,1,59.46-23.23ZM268,611.11,388.39,492.56,330.07,617.8c-20.2-1.51-42.17-3.78-62.12-6.69Zm45.58,68.3,23.61-50.5c12.37.63,24.36.89,37,.89a741.14,741.14,0,0,0,108.32-8.08,739.92,739.92,0,0,1-169.18,57.82ZM494.44,522.74v86.35a727.28,727.28,0,0,1-120.56,10.1c-10.74,0-21.47,0-32.45-.76L408,475.77a93,93,0,0,1,48.61-13.26A92,92,0,0,1,513.26,482,59.16,59.16,0,0,0,494.44,522.74Zm11,83.2V526a50.61,50.61,0,0,1,16.16-37c16.16,12.37,25.88,26.26,50.88,31.81a88.3,88.3,0,0,1-67,85.1ZM645.69,412.39a66.26,66.26,0,0,1-52.39,98.73,68.09,68.09,0,0,1-10.1,0,98.82,98.82,0,0,0-8.71-31.69A37,37,0,0,0,621.07,427h0l-40.52-70.7A37.07,37.07,0,0,1,591.15,307a21.83,21.83,0,0,0,2.65,14.9Zm-80.54-84.46a50.19,50.19,0,0,1,30-64.26,52.38,52.38,0,0,1,17.55-3,48.12,48.12,0,0,1,16.79,3c28,10.1,51.77,18.68,76,25.5h-93a48.6,48.6,0,0,0-47.34,39Zm47.34-92.54a52.34,52.34,0,0,1,30,9.47L660,215.31l-9.47-5.55-11.61,20a63,63,0,0,0-20.2-5.43V217a16.22,16.22,0,1,0-10.86,0v7.57a61.48,61.48,0,0,0-20.2,5.43L576,209.89l-9.47,5.55,16.92,29.29A51.28,51.28,0,0,1,612.49,235.39Zm-5.56-34a5.56,5.56,0,1,1,5.56,5.55,5.61,5.61,0,0,1-5.56-5.55Z"/></svg>