<svg id="Layer_1" data-name="Layer 1" xmlns="http://www.w3.org/2000/svg" viewBox="0 0 1000 1000"><defs><style>.cls-1{fill:#020202;}</style></defs><path class="cls-1" d="M496.2,628a51.57,51.57,0,0,0-38.5-15.5,65.78,65.78,0,0,0-67,64.5h0v4.2a65.74,65.74,0,0,0,63,68.4h4.2a51.42,51.42,0,0,0,38.5-15.5v14.1h30V614.31H496.2Zm-37.3,93.2a40.24,40.24,0,1,1,37.4-42.9,52.3,52.3,0,0,1,0,5.6A40.29,40.29,0,0,1,458.9,721.21Zm341.7-32.9c0,19.3-10.5,33.7-28.7,33.7s-27.3-9.8-27.3-33.7v-74H714.1v80.3c0,35.7,17.4,55.2,50.1,55.2a45,45,0,0,0,36-16.9v15.2h30V614.31H800.7v74Zm-126.3-74.6A50,50,0,0,0,626.7,628v-13.7H596.8v134h30V676c0-27,20.5-39.1,47.6-33.9Zm11,109.7a13.3,13.3,0,1,1-13.1,13.3A13.19,13.19,0,0,1,685.3,723.41Zm180.6,0a13.3,13.3,0,1,1-13.1,13.3A13.19,13.19,0,0,1,865.9,723.41Zm-304.5,0a13.3,13.3,0,1,1-13.1,13.3A13.19,13.19,0,0,1,561.4,723.41ZM412.7,340.71H526.2v-8a567.74,567.74,0,0,1-97-29.4,48.78,48.78,0,0,0-41,3.6,95.31,95.31,0,0,1-69.3,10.5v8.9a103.8,103.8,0,0,0,51.9-2.4,47.14,47.14,0,0,0-6.9,25c0,14.8,5.4,22.4,15.5,39.9l32.1,56a20.49,20.49,0,0,1-7.6,28.1,19.6,19.6,0,0,1-10.3,2.7c-20.8,0-34.2-39.1-82.9-39.1a80.31,80.31,0,0,0-58.6,25.7L121,593.11c8.4,1.5,45.9,6.4,64.2,7.4L160.5,653A582.63,582.63,0,0,0,319,600.51v147.7h8.7V595.91c7.4-3.9,14.6-7.8,21.8-11.9a78.85,78.85,0,0,0,40.4-67.7,57.48,57.48,0,0,0,8.3,0,60.89,60.89,0,0,0,56.3-65.1,61.64,61.64,0,0,0-8-26.1l-41.3-71.3a8.21,8.21,0,0,1-1.2-4.3,8.35,8.35,0,0,1,7.9-8.7h0l.8-.1Zm-41.3,139A70.68,70.68,0,0,1,381,506c-15.3-4.3-22.8-14.3-32.1-21.3a40.69,40.69,0,0,1,19.3-5.2Zm-60.1-33.9a70.07,70.07,0,0,1,53.7,25.1,48.18,48.18,0,0,0-23.8,7.9,81.76,81.76,0,0,0-77-14.6,70,70,0,0,1,47.1-18.4ZM139.8,587.11l95.4-93.9L189,592.41c-16-1.2-33.4-3-49.2-5.3Zm36.1,54.1,18.7-40c9.8.5,19.3.7,29.3.7a586.81,586.81,0,0,0,85.8-6.4,586,586,0,0,1-134,45.8Zm143.3-124.1v68.4a576.1,576.1,0,0,1-95.5,8c-8.5,0-17,0-25.7-.6l52.7-113a74.34,74.34,0,0,1,83.4,4.9A46.85,46.85,0,0,0,319.2,517.11Zm8.7,65.9v-63.3a40.11,40.11,0,0,1,12.8-29.3c12.8,9.8,20.5,20.8,40.3,25.2A69.93,69.93,0,0,1,327.9,583ZM439,429.71a52.48,52.48,0,0,1-41.5,78.2,53.4,53.4,0,0,1-8,0,78.12,78.12,0,0,0-6.9-25.1,29.33,29.33,0,0,0,36.9-41.5h0l-32.1-56a29.36,29.36,0,0,1,8.4-39.1,17.27,17.27,0,0,0,2.1,11.8Zm-63.8-66.9a39.76,39.76,0,0,1,23.8-50.9,41.48,41.48,0,0,1,13.9-2.4,38.11,38.11,0,0,1,13.3,2.4c22.2,8,41,14.8,60.2,20.2H412.7A38.5,38.5,0,0,0,375.2,363Zm37.5-73.3a41.47,41.47,0,0,1,23.8,7.5l13.8-23.4-7.5-4.4L433.6,285a50,50,0,0,0-16-4.3v-5.8a12.84,12.84,0,1,0-8.6,0v6a48.66,48.66,0,0,0-16,4.3l-9.2-15.9-7.5,4.4,13.4,23.2A40.63,40.63,0,0,1,412.7,289.51Zm-4.4-26.9a4.4,4.4,0,1,1,4.4,4.4,4.44,4.44,0,0,1-4.4-4.4Z"/></svg>